<svg width="10" height="10" viewBox="0 0 10 10" fill="none" xmlns="http://www.w3.org/2000/svg">
<g clip-path="url(#clip0_2_41)">
<path d="M10 0.78125V9.21875C10 9.42595 9.91771 9.62466 9.77119 9.77118C9.62468 9.91769 9.42597 10 9.21877 10C9.01157 10 8.81285 9.91769 8.66634 9.77118C8.51982 9.62466 8.43752 9.42595 8.43752 9.21875V2.66734L1.33369 9.77119C1.18717 9.9177 0.988458 10 0.781256 10C0.574054 10 0.375339 9.9177 0.228825 9.77119C0.0823107 9.62468 0 9.42596 0 9.21876C0 9.01156 0.0823107 8.81284 0.228825 8.66633L7.33267 1.5625H0.781266C0.574066 1.5625 0.375352 1.48019 0.228839 1.33368C0.0823261 1.18716 1.60841e-05 0.98845 1.60841e-05 0.78125C1.60841e-05 0.57405 0.0823261 0.375336 0.228839 0.228823C0.375352 0.08231 0.574066 0 0.781266 0L9.21877 0C9.42597 0 9.62468 0.08231 9.77119 0.228823C9.91771 0.375336 10 0.57405 10 0.78125Z" fill="#222222"/>
</g>
<defs>
<clipPath id="clip0_2_41">
<rect width="10" height="10" fill="white"/>
</clipPath>
</defs>
</svg>
