<svg width="25" height="25" viewBox="0 0 25 25" fill="none" xmlns="http://www.w3.org/2000/svg">
<g clip-path="url(#clip0_45_17)">
<path d="M4.44954 12.239C4.4454 11.034 3.46521 10.0606 2.26022 10.0647C1.05523 10.0688 0.0817535 11.049 0.0858941 12.254C0.0900348 13.459 1.07023 14.4325 2.27521 14.4284C3.4802 14.4242 4.45368 13.444 4.44954 12.239Z" fill="white"/>
<path d="M4.47203 18.7844C4.46789 17.5795 3.4877 16.606 2.28271 16.6101C1.07772 16.6143 0.104245 17.5945 0.108386 18.7994C0.112526 20.0044 1.09272 20.9779 2.29771 20.9738C3.50269 20.9696 4.47617 19.9894 4.47203 18.7844Z" fill="white"/>
<path d="M4.42705 5.69359C4.42291 4.48861 3.44272 3.51513 2.23773 3.51927C1.03274 3.52341 0.0592621 4.5036 0.0634027 5.70859C0.0675433 6.91358 1.04774 7.88705 2.25272 7.88291C3.45771 7.87877 4.43119 6.89858 4.42705 5.69359Z" fill="white"/>
<path d="M10.995 12.2165C10.9908 11.0116 10.0106 10.0381 8.80565 10.0422C7.60066 10.0464 6.62718 11.0266 6.63132 12.2315C6.63546 13.4365 7.61565 14.41 8.82064 14.4059C10.0256 14.4017 10.9991 13.4215 10.995 12.2165Z" fill="white"/>
<path d="M11.0175 18.762C11.0133 17.557 10.0331 16.5835 8.82814 16.5876C7.62315 16.5918 6.64967 17.572 6.65381 18.7769C6.65795 19.9819 7.63814 20.9554 8.84313 20.9513C10.0481 20.9471 11.0216 19.9669 11.0175 18.762Z" fill="white"/>
<path d="M10.9725 5.6711C10.9683 4.46612 9.98814 3.49264 8.78315 3.49678C7.57817 3.50092 6.60469 4.48111 6.60883 5.6861C6.61297 6.89108 7.59316 7.86456 8.79815 7.86042C10.0031 7.85628 10.9766 6.87609 10.9725 5.6711Z" fill="white"/>
<path d="M17.5404 12.1941C17.5363 10.9891 16.5561 10.0156 15.3511 10.0197C14.1461 10.0239 13.1726 11.0041 13.1767 12.209C13.1809 13.414 14.1611 14.3875 15.3661 14.3834C16.5711 14.3792 17.5445 13.399 17.5404 12.1941Z" fill="white"/>
<path d="M24.0858 12.1716C24.0817 10.9666 23.1015 9.99309 21.8965 9.99723C20.6915 10.0014 19.718 10.9816 19.7222 12.1866C19.7263 13.3915 20.7065 14.365 21.9115 14.3609C23.1165 14.3567 24.0899 13.3765 24.0858 12.1716Z" fill="white"/>
<path d="M17.5629 18.7395C17.5587 17.5345 16.5785 16.561 15.3736 16.5651C14.1686 16.5693 13.1951 17.5495 13.1992 18.7545C13.2034 19.9594 14.1836 20.9329 15.3886 20.9288C16.5935 20.9246 17.567 19.9444 17.5629 18.7395Z" fill="white"/>
<path d="M17.5179 5.64861C17.5138 4.44362 16.5336 3.47014 15.3286 3.47428C14.1236 3.47843 13.1501 4.45862 13.1543 5.66361C13.1584 6.86859 14.1386 7.84207 15.3436 7.83793C16.5486 7.83379 17.522 6.8536 17.5179 5.64861Z" fill="white"/>
</g>
<defs>
<clipPath id="clip0_45_17">
<rect width="24" height="24" fill="white" transform="translate(0.127129 24.254) rotate(-90.1969)"/>
</clipPath>
</defs>
</svg>
