<svg width="14" height="14" viewBox="0 0 14 14" fill="none" xmlns="http://www.w3.org/2000/svg">
<path d="M14 1.09375V12.9062C14 13.1963 13.8848 13.4745 13.6797 13.6796C13.4746 13.8848 13.1964 14 12.9063 14C12.6162 14 12.338 13.8848 12.1329 13.6796C11.9278 13.4745 11.8125 13.1963 11.8125 12.9062V3.73428L1.86716 13.6797C1.66204 13.8848 1.38384 14 1.09376 14C0.803676 14 0.525474 13.8848 0.320354 13.6797C0.115235 13.4745 0 13.1963 0 12.9063C0 12.6162 0.115235 12.338 0.320354 12.1329L10.2657 2.1875H1.09377C0.803692 2.1875 0.525492 2.07227 0.320374 1.86715C0.115257 1.66203 2.25177e-05 1.38383 2.25177e-05 1.09375C2.25177e-05 0.803669 0.115257 0.52547 0.320374 0.320352C0.525492 0.115234 0.803692 0 1.09377 0L12.9063 0C13.1964 0 13.4746 0.115234 13.6797 0.320352C13.8848 0.52547 14 0.803669 14 1.09375Z" fill="white"/>
</svg>
