<svg width="30" height="34" viewBox="0 0 30 34" fill="none" xmlns="http://www.w3.org/2000/svg">
<path d="M20.6761 22.4642C24.2942 16.787 23.8393 17.4953 23.9436 17.3472C25.2608 15.4893 25.957 13.3026 25.957 11.0234C25.957 4.97914 21.0522 0 15 0C8.96752 0 4.04297 4.96931 4.04297 11.0234C4.04297 13.3012 4.75378 15.5451 6.11418 17.4281L9.32373 22.4643C5.89218 22.9916 0.0585938 24.5631 0.0585938 28.0234C0.0585938 29.2848 0.881898 31.0824 4.80412 32.4832C7.54284 33.4613 11.1638 34 15 34C22.1735 34 29.9414 31.9765 29.9414 28.0234C29.9414 24.5625 24.1147 22.9927 20.6761 22.4642ZM7.77825 16.3323C7.76731 16.3152 7.75586 16.2984 7.74392 16.2819C6.61189 14.7246 6.03516 12.8789 6.03516 11.0234C6.03516 6.04177 10.0465 1.99219 15 1.99219C19.9432 1.99219 23.9648 6.04357 23.9648 11.0234C23.9648 12.8819 23.399 14.665 22.3282 16.1813C22.2322 16.3078 22.7329 15.5301 15 27.6641L7.77825 16.3323ZM15 32.0078C7.16446 32.0078 2.05078 29.7046 2.05078 28.0234C2.05078 26.8935 4.67834 25.0355 10.5008 24.3113L14.16 30.0529C14.2499 30.1942 14.3741 30.3104 14.5209 30.391C14.6677 30.4715 14.8325 30.5138 14.9999 30.5138C15.1674 30.5138 15.3322 30.4715 15.479 30.391C15.6258 30.3104 15.7499 30.1942 15.8399 30.0529L19.499 24.3113C25.3216 25.0355 27.9492 26.8935 27.9492 28.0234C27.9492 29.6904 22.8816 32.0078 15 32.0078Z" fill="#DDB166"/>
<path d="M15 6.04297C12.2538 6.04297 10.0195 8.27721 10.0195 11.0234C10.0195 13.7697 12.2538 16.0039 15 16.0039C17.7462 16.0039 19.9805 13.7697 19.9805 11.0234C19.9805 8.27721 17.7462 6.04297 15 6.04297ZM15 14.0117C13.3523 14.0117 12.0117 12.6712 12.0117 11.0234C12.0117 9.3757 13.3523 8.03516 15 8.03516C16.6477 8.03516 17.9883 9.3757 17.9883 11.0234C17.9883 12.6712 16.6477 14.0117 15 14.0117Z" fill="#DDB166"/>
</svg>
