<svg width="34" height="34" viewBox="0 0 34 34" fill="none" xmlns="http://www.w3.org/2000/svg">
<g clip-path="url(#clip0_32_725)">
<path d="M26.8714 21.0618C26.1753 20.337 25.3357 19.9495 24.4459 19.9495C23.5633 19.9495 22.7165 20.3298 21.9917 21.0546L19.7241 23.315C19.5376 23.2145 19.351 23.1213 19.1716 23.028C18.9133 22.8988 18.6693 22.7768 18.4612 22.6476C16.3371 21.2986 14.4068 19.5405 12.5554 17.2657C11.6584 16.1319 11.0556 15.1775 10.6179 14.2088C11.2063 13.6706 11.7517 13.1108 12.2827 12.5726C12.4836 12.3717 12.6846 12.1636 12.8855 11.9627C14.3924 10.4557 14.3924 8.50389 12.8855 6.99695L10.9265 5.03792C10.704 4.81547 10.4744 4.58584 10.2591 4.35621C9.82854 3.9113 9.37645 3.45204 8.91002 3.02148C8.21395 2.33259 7.38154 1.96662 6.50608 1.96662C5.63062 1.96662 4.78386 2.33259 4.06626 3.02148L4.05191 3.03584L1.6121 5.49718C0.693576 6.4157 0.169733 7.53514 0.0549185 8.83399C-0.117304 10.9294 0.499826 12.8812 0.973437 14.1585C2.13594 17.2944 3.87251 20.2007 6.46302 23.315C9.60608 27.068 13.3878 30.0317 17.7077 32.1199C19.3582 32.9021 21.5612 33.8277 24.0225 33.9856C24.1732 33.9928 24.3311 34 24.4746 34C26.1322 34 27.5244 33.4044 28.6151 32.2203C28.6223 32.206 28.6366 32.1988 28.6438 32.1845C29.017 31.7324 29.4475 31.3233 29.8996 30.8856C30.2082 30.5914 30.5239 30.2828 30.8325 29.9599C31.5429 29.2208 31.916 28.3597 31.916 27.4771C31.916 26.5872 31.5357 25.7333 30.811 25.0157L26.8714 21.0618ZM29.4404 28.618C29.4332 28.618 29.4332 28.6252 29.4404 28.618C29.1605 28.9194 28.8735 29.1921 28.5649 29.4935C28.0985 29.9384 27.6248 30.4048 27.1799 30.9287C26.4552 31.7037 25.6012 32.0696 24.4818 32.0696C24.3741 32.0696 24.2593 32.0696 24.1517 32.0625C22.0204 31.9261 20.0399 31.0937 18.5545 30.3833C14.4929 28.4171 10.9265 25.6257 7.96279 22.0879C5.5158 19.1386 3.87969 16.4118 2.79612 13.484C2.12876 11.6972 1.88478 10.3051 1.99242 8.99186C2.06418 8.15227 2.3871 7.45621 2.9827 6.86061L5.42969 4.41361C5.78131 4.08352 6.15446 3.90412 6.52043 3.90412C6.97252 3.90412 7.33849 4.17681 7.56812 4.40644L7.58964 4.42797C8.02738 4.83699 8.44358 5.26037 8.88131 5.71246C9.10377 5.94209 9.3334 6.17172 9.56303 6.40852L11.5221 8.36755C12.2827 9.1282 12.2827 9.83144 11.5221 10.5921C11.314 10.8002 11.113 11.0083 10.9049 11.2092C10.3021 11.8263 9.72807 12.4004 9.10377 12.9601C9.08941 12.9745 9.07506 12.9817 9.06789 12.996C8.45076 13.6132 8.56557 14.2159 8.69474 14.625L8.71627 14.6895C9.22576 15.9238 9.94335 17.0863 11.0341 18.4713L11.0413 18.4784C13.0218 20.9183 15.11 22.8199 17.4135 24.2766C17.7077 24.4632 18.0091 24.6139 18.2961 24.7574C18.5545 24.8865 18.7984 25.0085 19.0065 25.1377C19.0353 25.152 19.064 25.1736 19.0927 25.1879C19.3366 25.3099 19.5663 25.3673 19.8031 25.3673C20.3987 25.3673 20.7718 24.9942 20.8938 24.8722L23.348 22.418C23.592 22.174 23.9795 21.8798 24.4316 21.8798C24.8765 21.8798 25.2424 22.1597 25.4649 22.4037L25.4792 22.418L29.4332 26.372C30.1723 27.1039 30.1723 27.8574 29.4404 28.618ZM18.3751 8.08769C20.2552 8.40343 21.963 9.29325 23.3265 10.6567C24.6899 12.0201 25.5725 13.728 25.8954 15.6081C25.9744 16.0817 26.3834 16.4118 26.8498 16.4118C26.9072 16.4118 26.9575 16.4046 27.0149 16.3974C27.5459 16.3113 27.8975 15.809 27.8114 15.278C27.4239 13.0032 26.3475 10.9294 24.7042 9.28607C23.061 7.64278 20.9871 6.56639 18.7123 6.17889C18.1813 6.09278 17.6862 6.4444 17.5929 6.96824C17.4996 7.49209 17.844 8.00158 18.3751 8.08769ZM33.9612 14.9981C33.3225 11.2523 31.5573 7.84371 28.8447 5.13121C26.1322 2.41871 22.7237 0.653427 18.9778 0.0147691C18.454 -0.078518 17.9589 0.280279 17.8656 0.804121C17.7795 1.33514 18.1311 1.83028 18.6621 1.92357C22.0061 2.49046 25.0559 4.07634 27.4813 6.49463C29.9068 8.9201 31.4855 11.9699 32.0524 15.3139C32.1313 15.7875 32.5404 16.1176 33.0068 16.1176C33.0642 16.1176 33.1144 16.1104 33.1718 16.1032C33.6957 16.0243 34.0545 15.522 33.9612 14.9981Z" fill="#DDB166"/>
</g>
<defs>
<clipPath id="clip0_32_725">
<rect width="34" height="34" fill="white"/>
</clipPath>
</defs>
</svg>
