<svg width="30" height="30" viewBox="0 0 30 30" fill="none" xmlns="http://www.w3.org/2000/svg">
<path d="M10.3848 2.30762H3.46159C2.49993 2.30762 1.68268 2.64419 1.00947 3.31715C0.336574 3.99023 0 4.80748 0 5.76921V12.6921C0 13.6538 0.336384 14.4709 1.00947 15.1439C1.68262 15.8168 2.50012 16.1535 3.46159 16.1535H7.50004C7.98065 16.1535 8.3894 16.3218 8.72597 16.6583C9.06255 16.9945 9.23077 17.4034 9.23077 17.8844V18.461C9.23077 19.7351 8.77996 20.8225 7.8786 21.7241C6.97718 22.6253 5.88953 23.076 4.61529 23.076H3.46159C3.14889 23.076 2.87856 23.1905 2.65009 23.4187C2.42181 23.6469 2.30758 23.9174 2.30758 24.23V26.5379C2.30758 26.8499 2.42181 27.121 2.65009 27.3492C2.87875 27.5774 3.14883 27.6919 3.46159 27.6919H4.61535C5.86548 27.6919 7.05839 27.4482 8.19427 26.9616C9.3301 26.4749 10.3126 25.8167 11.142 24.9873C11.9712 24.1579 12.6293 23.1755 13.116 22.0396C13.6027 20.9038 13.8461 19.711 13.8461 18.4611V5.76895C13.8461 4.80723 13.5096 3.99004 12.8366 3.31708C12.1636 2.64413 11.3462 2.30762 10.3848 2.30762ZM28.9901 3.31715C28.3172 2.64419 27.4999 2.30762 26.5382 2.30762H19.6153C18.6536 2.30762 17.8364 2.64419 17.1634 3.31715C16.4905 3.99029 16.1541 4.80748 16.1541 5.76921V12.6921C16.1541 13.6538 16.4905 14.4709 17.1634 15.1439C17.8364 15.8168 18.6537 16.1535 19.6153 16.1535H23.6537C24.1344 16.1535 24.5434 16.3218 24.8799 16.6583C25.2161 16.9947 25.3847 17.4034 25.3847 17.8844V18.461C25.3847 19.7351 24.9339 20.8225 24.0324 21.7241C23.131 22.6253 22.0436 23.076 20.7692 23.076H19.6153C19.3028 23.076 19.0323 23.1905 18.8041 23.4187C18.5756 23.6469 18.4613 23.9174 18.4613 24.23V26.5379C18.4613 26.8499 18.5756 27.121 18.8041 27.3492C19.0322 27.5774 19.3028 27.6919 19.6153 27.6919H20.7692C22.0192 27.6919 23.212 27.4482 24.348 26.9616C25.4837 26.4749 26.4661 25.8167 27.2955 24.9873C28.1249 24.1579 28.7834 23.1753 29.2698 22.0396C29.7564 20.9041 30 19.711 30 18.4611V5.76895C29.9998 4.80723 29.6635 3.99004 28.9901 3.31715Z" fill="#222222"/>
</svg>
