<svg width="16" height="16" viewBox="0 0 16 16" fill="none" xmlns="http://www.w3.org/2000/svg">
<g clip-path="url(#clip0_9_21)">
<path d="M16 1.25V14.75C16 15.0815 15.8683 15.3995 15.6339 15.6339C15.3995 15.8683 15.0815 16 14.75 16C14.4185 16 14.1006 15.8683 13.8661 15.6339C13.6317 15.3995 13.5 15.0815 13.5 14.75V4.26775L2.1339 15.6339C1.89948 15.8683 1.58153 16 1.25001 16C0.918487 16 0.600542 15.8683 0.36612 15.6339C0.131697 15.3995 0 15.0815 0 14.75C0 14.4185 0.131697 14.1005 0.36612 13.8661L11.7323 2.5H1.25003C0.918505 2.5 0.600563 2.3683 0.366142 2.13388C0.131722 1.89946 2.57345e-05 1.58152 2.57345e-05 1.25C2.57345e-05 0.918479 0.131722 0.600537 0.366142 0.366117C0.600563 0.131696 0.918505 0 1.25003 0L14.75 0C15.0815 0 15.3995 0.131696 15.6339 0.366117C15.8683 0.600537 16 0.918479 16 1.25Z" fill="white"/>
</g>
<defs>
<clipPath id="clip0_9_21">
<rect width="16" height="16" fill="white"/>
</clipPath>
</defs>
</svg>
